<svg width="80" height="80" viewBox="0 0 80 80" fill="none" xmlns="http://www.w3.org/2000/svg">
<path d="M17.6668 18.3333C17.6668 15.5043 18.7906 12.7912 20.791 10.7908C22.7913 8.79043 25.5044 7.66663 28.3334 7.66663H39.0001V29H28.3334C25.5044 29 22.7913 27.8762 20.791 25.8758C18.7906 23.8754 17.6668 21.1623 17.6668 18.3333Z" fill="#11A3AE" stroke="#212121" stroke-width="2" stroke-linecap="round" stroke-linejoin="round"/>
<path d="M41 7.66663H51.6667C53.0674 7.66663 54.4545 7.94253 55.7486 8.47858C57.0428 9.01463 58.2187 9.80033 59.2091 10.7908C60.1996 11.7813 60.9853 12.9572 61.5214 14.2513C62.0574 15.5455 62.3333 16.9325 62.3333 18.3333C62.3333 19.7341 62.0574 21.1211 61.5214 22.4152C60.9853 23.7094 60.1996 24.8853 59.2091 25.8758C58.2187 26.8663 57.0428 27.652 55.7486 28.188C54.4545 28.7241 53.0674 29 51.6667 29H41V7.66663Z" fill="#11A3AE" stroke="#212121" stroke-width="2" stroke-linecap="round" stroke-linejoin="round"/>
<path d="M41 41.6667C41 40.2659 41.2759 38.8789 41.812 37.5847C42.348 36.2906 43.1337 35.1147 44.1242 34.1242C45.1147 33.1337 46.2906 32.348 47.5847 31.812C48.8789 31.2759 50.2659 31 51.6667 31C53.0674 31 54.4545 31.2759 55.7486 31.812C57.0428 32.348 58.2187 33.1337 59.2091 34.1242C60.1996 35.1147 60.9853 36.2906 61.5214 37.5847C62.0574 38.8789 62.3333 40.2659 62.3333 41.6667C62.3333 43.0674 62.0574 44.4545 61.5214 45.7486C60.9853 47.0428 60.1996 48.2187 59.2091 49.2091C58.2187 50.1996 57.0428 50.9853 55.7486 51.5214C54.4545 52.0574 53.0674 52.3333 51.6667 52.3333C50.2659 52.3333 48.8789 52.0574 47.5847 51.5214C46.2906 50.9853 45.1147 50.1996 44.1242 49.2091C43.1337 48.2187 42.348 47.0428 41.812 45.7486C41.2759 44.4545 41 43.0674 41 41.6667Z" fill="#11A3AE" stroke="#212121" stroke-width="2" stroke-linecap="round" stroke-linejoin="round"/>
<path d="M17.6668 65C17.6668 62.1711 18.7906 59.458 20.791 57.4576C22.7913 55.4572 25.5044 54.3334 28.3334 54.3334H39.0001V65C39.0001 67.829 37.8763 70.5421 35.8759 72.5425C33.8755 74.5429 31.1624 75.6667 28.3334 75.6667C25.5044 75.6667 22.7913 74.5429 20.791 72.5425C18.7906 70.5421 17.6668 67.829 17.6668 65Z" fill="#11A3AE" stroke="#212121" stroke-width="2" stroke-linecap="round" stroke-linejoin="round"/>
<path d="M17.6668 41.6667C17.6668 38.8377 18.7906 36.1246 20.791 34.1242C22.7913 32.1238 25.5044 31 28.3334 31H39.0001V52.3333H28.3334C25.5044 52.3333 22.7913 51.2095 20.791 49.2091C18.7906 47.2088 17.6668 44.4956 17.6668 41.6667Z" fill="#11A3AE" stroke="#212121" stroke-width="2" stroke-linecap="round" stroke-linejoin="round"/>
</svg>
