<svg width="63" height="62" viewBox="0 0 63 62" fill="none" xmlns="http://www.w3.org/2000/svg">
<circle cx="31.5" cy="31" r="31" fill="#212121"/>
<path fill-rule="evenodd" clip-rule="evenodd" d="M31.5 0C14.3725 0 0.5 13.8725 0.5 31C0.5 44.7175 9.37375 56.3037 21.6963 60.4112C23.2463 60.6825 23.8275 59.7525 23.8275 58.9388C23.8275 58.2025 23.7888 55.7612 23.7888 53.165C16 54.5987 13.985 51.2662 13.365 49.5225C13.0163 48.6312 11.505 45.88 10.1875 45.1437C9.1025 44.5625 7.5525 43.1287 10.1488 43.09C12.59 43.0512 14.3337 45.3375 14.915 46.2675C17.705 50.9562 22.1613 49.6387 23.9438 48.825C24.215 46.81 25.0288 45.4537 25.92 44.6787C19.0225 43.9037 11.815 41.23 11.815 29.3725C11.815 26.0012 13.0162 23.2112 14.9925 21.0412C14.6825 20.2662 13.5975 17.0887 15.3025 12.8262C15.3025 12.8262 17.8988 12.0125 23.8275 16.0037C26.3075 15.3062 28.9425 14.9575 31.5775 14.9575C34.2125 14.9575 36.8475 15.3062 39.3275 16.0037C45.2563 11.9738 47.8525 12.8262 47.8525 12.8262C49.5575 17.0887 48.4725 20.2662 48.1625 21.0412C50.1388 23.2112 51.34 25.9625 51.34 29.3725C51.34 41.2687 44.0938 43.9037 37.1963 44.6787C38.32 45.6475 39.2888 47.5075 39.2888 50.4137C39.2888 54.56 39.25 57.8925 39.25 58.9388C39.25 59.7525 39.8313 60.7212 41.3813 60.4112C53.6263 56.3037 62.5 44.6787 62.5 31C62.5 13.8725 48.6275 0 31.5 0Z" fill="#11A3AE"/>
</svg>
