<svg width="62" height="62" viewBox="0 0 62 62" fill="none" xmlns="http://www.w3.org/2000/svg">
<circle cx="31" cy="31" r="31" fill="#212121"/>
<path fill-rule="evenodd" clip-rule="evenodd" d="M43.4469 41.3689C43.4502 41.7815 43.3174 41.9001 42.9158 41.8908C41.7752 41.8689 40.6344 41.8517 39.4955 41.897C38.9236 41.9204 38.7516 41.772 38.7594 41.1768C38.794 38.6126 38.7719 36.047 38.7766 33.4815C38.7766 32.7784 38.7299 32.0815 38.4719 31.4189C38.0344 30.3001 37.2797 29.5425 36.0283 29.4329C34.6969 29.3158 33.7299 29.922 33.0768 31.0456C32.6486 31.7815 32.5502 32.6033 32.5518 33.4439C32.558 36.0361 32.5377 38.6267 32.5672 41.2173C32.5752 41.7753 32.4047 41.9142 31.8704 41.8954C30.7313 41.8564 29.5907 41.8659 28.4502 41.8925C28.0127 41.9033 27.8797 41.772 27.8797 41.3283C27.894 35.9908 27.8922 30.6533 27.883 25.3159C27.883 24.9331 27.9611 24.7611 28.3922 24.7706C29.6094 24.797 30.8282 24.797 32.0454 24.7706C32.4672 24.7628 32.5782 24.9158 32.561 25.3097C32.5344 25.9487 32.5547 26.5892 32.5547 27.3954C34.3596 25.1642 36.5329 24.4315 39.1143 24.9518C41.6143 25.4564 43.3344 27.7065 43.4063 30.7206C43.4907 34.2673 43.4283 37.8189 43.4469 41.3689ZM22.4393 22.7847C20.9251 22.7814 19.7407 21.5814 19.744 20.0565C19.7469 18.5501 20.9674 17.3222 22.4547 17.3251C23.944 17.3298 25.1533 18.5626 25.1487 20.0704C25.1454 21.5987 23.958 22.7876 22.4393 22.7847ZM24.1143 41.897C22.9766 41.8517 21.8346 41.8689 20.6955 41.8908C20.2876 41.8987 20.1033 41.8236 20.1048 41.3486C20.1205 36.0142 20.1188 30.6815 20.1063 25.347C20.1048 24.919 20.208 24.7579 20.6641 24.7706C21.8283 24.8001 22.9954 24.8081 24.158 24.7673C24.6938 24.7486 24.7922 24.947 24.7893 25.4314C24.769 28.072 24.7797 30.7126 24.7797 33.3548C24.7797 35.9689 24.7643 38.5847 24.7908 41.2001C24.7971 41.7314 24.6751 41.919 24.1143 41.897ZM49.5797 18.5784C49.4735 17.7298 49.4594 16.8564 48.9907 16.0972C47.4737 13.6362 45.3797 12.2345 42.3782 12.2503C34.7846 12.2893 27.1908 12.2503 19.5969 12.2768C18.4565 12.2798 17.283 12.3173 16.2471 12.9298C13.7188 14.4267 12.2344 16.5189 12.2502 19.5861C12.286 27.205 12.2502 34.8236 12.2751 42.4439C12.2797 43.5173 12.2955 44.6408 12.8579 45.6079C14.186 47.8956 15.9362 49.594 18.811 49.5829C18.8938 49.5829 18.958 49.622 19.0268 49.6579H42.9721C43.1049 49.5392 43.2674 49.5986 43.4174 49.5798C44.2782 49.472 45.1674 49.4673 45.9313 48.9736C48.0672 47.5923 49.6376 45.8533 49.5893 43.1048C49.5893 43.0564 49.6235 43.0128 49.6596 42.9722V19.0268C49.5532 18.8909 49.5985 18.7298 49.5797 18.5784Z" fill="#11A3AE"/>
</svg>
