<svg width="62" height="62" viewBox="0 0 62 62" fill="none" xmlns="http://www.w3.org/2000/svg">
<circle cx="31" cy="31" r="31" fill="#212121"/>
<path fill-rule="evenodd" clip-rule="evenodd" d="M18.5 14.3333H43.5C48.1024 14.3333 51.8333 18.0643 51.8333 22.6667V41.4167C51.8333 46.0191 48.1024 49.75 43.5 49.75H18.5C13.8976 49.75 10.1667 46.0191 10.1667 41.4167V22.6667C10.1667 18.0643 13.8976 14.3333 18.5 14.3333ZM33.9167 34.2292L47.125 24.4375C47.7145 24.0042 47.8446 23.1767 47.4167 22.5833C47.2126 22.3 46.9026 22.1114 46.5573 22.0603C46.2119 22.0093 45.8605 22.1003 45.5833 22.3125L32.2292 32.0417C31.895 32.3919 31.432 32.5901 30.9479 32.5901C30.4638 32.5901 30.0008 32.3919 29.6667 32.0417L16.4167 22.3125C16.1408 22.107 15.7943 22.02 15.4541 22.0708C15.1138 22.1217 14.8079 22.3061 14.6042 22.5833C14.1717 23.1713 14.2924 23.9978 14.875 24.4375L28 34.125C28.8167 34.8998 29.8952 35.3386 31.0208 35.3542C32.0927 35.354 33.1257 34.9527 33.9167 34.2292Z" fill="#11A3AE"/>
</svg>
